<?xml version="1.0" encoding="utf-8"?>
<!DOCTYPE svg PUBLIC "-//W3C//DTD SVG 20010904//EN" "http://www.w3.org/TR/2001/REC-SVG-20010904/DTD/svg10.dtd">
<svg version="1.0" xmlns="http://www.w3.org/2000/svg" width="1481px" height="1093px" viewBox="0 0 1481 1093" preserveAspectRatio="xMidYMid meet">
 <g fill="#ffffff">
  <path d="M0 546.5 l0 -546.5 740.5 0 740.5 0 0 546.5 0 546.5 -740.5 0 -740.5 0 0 -546.5z"/>
 </g>
 <g fill="#c9062d">
  <path d="M0 546.5 l0 -546.5 740.5 0 740.5 0 0 546.5 0 546.5 -740.5 0 -740.5 0 0 -546.5z m483.5 280.2 c35.5 -5.7 59.6 -14.6 84.1 -30.8 14.7 -9.8 37.2 -32.1 46.6 -46.4 21.3 -32.1 30.2 -66.2 27.7 -105.8 -1.7 -26.5 -10.9 -53.8 -25.2 -75.2 -19.2 -28.6 -44.2 -47.2 -85.6 -63.6 l-14.4 -5.7 2.9 -1.7 c17.5 -10.7 29.2 -20.1 39 -31.2 20.7 -23.8 31.7 -50.2 34.3 -82.6 3.8 -46.8 -14.8 -92.5 -49.5 -121.6 -27.4 -22.9 -61.2 -33.8 -115.4 -37.1 -9.1 -0.5 -46.1 -1 -82.2 -1 l-65.8 0 0 302.6 0 302.5 96.8 -0.4 c83 -0.3 98.1 -0.6 106.7 -2z m188.5 -9.9 c1.8 -4.6 5.9 -15 9.2 -23.3 3.3 -8.2 8.6 -22.2 11.9 -31 5.5 -14.6 10.6 -27.7 27.5 -70.8 4.2 -10.8 6 -14.4 6.5 -13 0.4 1 6.4 16.3 13.3 34.1 6.9 17.8 12.6 32.5 12.6 32.8 0 0.2 -5.5 0.4 -12.2 0.4 l-12.3 0 -6.7 17.8 c-3.8 9.8 -6.8 18.1 -6.8 18.5 0 0.4 11.8 0.8 26.2 0.9 l26.3 0.3 7.9 20.8 7.9 20.7 20 0 c18.5 0 19.9 -0.1 19.3 -1.7 -0.4 -1 -17.9 -46.5 -38.9 -101.1 l-38.1 -99.2 -19.6 0.2 -19.5 0.3 -38.7 100.5 c-21.4 55.3 -38.8 100.6 -38.8 100.7 0 0.2 9 0.3 19.9 0.3 l20 0 3.1 -8.2z m220.2 -57.3 l0.3 -65.5 42.4 65.1 c23.4 35.8 43 65.3 43.6 65.5 0.6 0.3 9 0.3 18.8 0.2 l17.7 -0.3 -65.2 -100.7 -65.3 -100.7 -15.7 -0.1 -15.8 0 0 101 0 101 19.5 0 19.5 0 0.2 -65.5z m256.9 63.2 c11.4 -1.9 19.1 -4.6 27.8 -9.9 27.4 -16.6 43.1 -48 43.1 -86.3 -0.1 -31.5 -10.2 -58.4 -29.2 -77.7 -20.2 -20.4 -41.7 -25.8 -103 -25.8 l-27.8 0 0 18.5 0 18.5 27.3 0 c48.2 0 62.9 3.3 76.5 17 6.8 6.9 11 14.2 14.4 25 2 6.6 2.3 9.4 2.3 24.5 0 16 -0.2 17.5 -2.8 24.9 -6.5 18.4 -16.5 28.8 -32.1 33.3 -3.5 1.1 -11.8 1.7 -26.3 2 l-21.3 0.5 0 -47.6 0 -47.6 -19 0 -19 0 0 66.6 0 66.6 39.8 -0.5 c29.4 -0.3 42.2 -0.9 49.3 -2z m-134.1 -122.2 l0 -77.5 -19.5 0 -19.5 0 0 48.2 0 48.1 14.4 22.1 c7.9 12.2 16.4 25.4 19 29.4 2.6 3.9 4.9 7.2 5.1 7.2 0.3 0 0.5 -34.9 0.5 -77.5z m-121.4 -150.4 c0.5 -0.5 3.2 -1.2 5.9 -1.5 8 -0.8 12.5 -1.8 13.1 -2.7 0.3 -0.5 1.3 -0.9 2.3 -0.9 1.7 0 13.7 -5.7 20.6 -9.8 8.5 -5 18.9 -14.2 27 -24.2 13.3 -16.3 23.2 -43.3 23.8 -65.2 l0.2 -8.3 -52.4 -0.3 c-29.8 -0.1 -52.9 0.2 -53.4 0.7 -0.8 0.8 -2.7 13.6 -4.3 28.9 l-0.7 6.2 32.7 0 c17.9 0 32.6 0.2 32.6 0.4 0 3.7 -13.7 20 -21.9 26 -6.1 4.5 -15.7 9.6 -18.1 9.6 -1.1 0 -2.2 0.5 -2.5 1 -0.3 0.6 -2.4 1 -4.5 1 -2.1 0 -4.2 0.5 -4.5 1 -0.4 0.6 -5.8 1 -13 1 -7.2 0 -12.6 -0.4 -13 -1 -0.3 -0.5 -2.1 -1 -4 -1 -1.9 0 -3.7 -0.4 -4 -1 -0.3 -0.5 -1.5 -1 -2.5 -1 -4.7 0 -20.3 -11 -26.5 -18.7 -8.5 -10.3 -11.5 -16.9 -14.2 -30.8 -3.5 -18.1 1.6 -39.8 13.6 -57.5 1.7 -2.4 2.9 -4.6 2.7 -4.7 -0.4 -0.4 -47.1 12.3 -50.2 13.6 -1.2 0.6 -2.4 2.2 -2.7 3.8 -4.7 25.3 -5.2 31.4 -3.7 43.9 1.7 15.1 3.5 21.6 10.1 36.9 5.4 12.4 23.5 32.9 35 39.5 7.7 4.5 19.3 10 21 10 1 0 2.1 0.5 2.4 1 0.3 0.6 1.9 1 3.5 1 1.6 0 3.2 0.5 3.5 1 0.3 0.6 3 1 6 1 3 0 5.7 0.5 6 1 0.8 1.3 32.7 1.4 34.1 0.1z m-209.1 -4.3 c0.3 -2.4 1.1 -6.5 1.6 -9.3 0.9 -4.8 34.9 -257.3 34.9 -259.4 0 -1.5 -36.8 26 -37.4 27.9 -0.3 0.8 -7.8 55 -16.6 120.5 -8.8 65.5 -16.3 120.2 -16.6 121.8 l-0.6 2.7 17 0 17 0 0.7 -4.2z m298.7 -142.3 c0.9 -1 -3.2 -14.5 -6.9 -22.9 -5.1 -11.3 -13.3 -23.4 -21.7 -32 -7.3 -7.5 -15.8 -14.6 -17.3 -14.6 -0.5 0 -1.8 -0.8 -2.9 -1.7 -2.4 -2.3 -10.2 -6.3 -12 -6.3 -0.8 0 -1.4 -0.4 -1.4 -1 0 -0.5 -0.9 -1 -1.9 -1 -1.1 0 -2.3 -0.4 -2.6 -1 -0.3 -0.5 -1.7 -1 -3 -1 -1.3 0 -2.7 -0.4 -3 -1 -0.3 -0.5 -2.1 -1 -3.8 -1 -1.8 0 -4.1 -0.7 -5.1 -1.5 -1.1 -0.8 -4.1 -1.5 -6.7 -1.5 -2.6 0 -5.1 -0.4 -5.4 -1 -0.4 -0.6 -6.7 -1 -15.5 -1 -8.8 0 -15.1 0.4 -15.5 1 -0.3 0.6 -2.7 1 -5.3 1 -2.6 0.1 -5.8 0.7 -7.2 1.5 -1.4 0.8 -3.7 1.4 -5.3 1.5 -1.5 0 -3.6 0.5 -4.6 1.2 -1 0.6 -2.6 0.8 -3.5 0.5 -1.3 -0.5 -1.6 -1.5 -1.1 -4.4 1.1 -6.8 5.5 -30.7 6.5 -35.3 0.6 -2.5 1.1 -6.3 1.3 -8.5 l0.4 -4 64.7 -0.3 64.6 -0.2 -0.2 -17.8 -0.3 -17.7 -77.8 -0.3 -77.7 -0.2 -0.9 2.2 c-0.4 1.3 -1.3 5.7 -2 9.8 -0.7 4.1 -1.6 9.1 -2.1 11 -0.5 1.9 -1.4 6.9 -2 11 -1.2 7.5 -1.9 11.7 -3.9 22 -2.7 14.2 -5.3 28.1 -8.6 46.5 -2 11 -4.2 23 -4.9 26.7 -0.7 3.7 -1.1 7 -0.9 7.2 0.3 0.3 1.4 0.1 2.4 -0.5 1 -0.5 2.8 -1.3 3.9 -1.9 1.1 -0.5 2.9 -1 3.9 -1 1.1 0 2.2 -0.4 2.5 -0.8 0.3 -0.4 2.8 -1.4 5.6 -2.2 2.8 -0.8 5.3 -1.8 5.6 -2.2 0.3 -0.4 1.6 -0.8 3 -0.8 1.4 0 3.6 -0.7 4.9 -1.6 1.4 -0.9 3.1 -1.4 3.9 -1.1 0.8 0.3 2.2 -0.1 3.3 -0.8 1 -0.8 3.5 -1.5 5.5 -1.5 2 0 4 -0.4 4.3 -1 0.3 -0.5 3.3 -1 6.5 -1 3.2 0 6.2 -0.4 6.5 -1 0.4 -0.6 6.7 -1 15.5 -1 8.8 0 15.1 0.4 15.5 1 0.3 0.6 2.8 1 5.5 1 2.7 0 5.2 0.5 5.5 1 0.3 0.6 1.5 1 2.6 1 3.5 0 21.2 9.2 27.3 14.1 8 6.5 15.9 16.6 20.8 26.6 l4 8.3 18.2 0 c10.1 0 18.5 -0.2 18.8 -0.5z m-267.4 -158.8 c4.5 -3.2 8.2 -6.1 8.2 -6.3 0 -0.2 -11.8 -0.4 -26.3 -0.4 l-26.4 0 -14.2 10.2 c-7.9 5.5 -14.7 11 -15.1 12.2 -0.8 1.9 -6 37.2 -6 40.3 0 0.7 16.1 -10.3 35.8 -24.4 19.6 -14.1 39.4 -28.3 44 -31.6z"/>
  <path d="M285 526.5 l0 -296.5 5 0 5 0 0 296.5 0 296.5 -5 0 -5 0 0 -296.5z"/>
  <path d="M299 526.5 l0 -296.5 5 0 5 0 0 296.5 0 296.5 -5 0 -5 0 0 -296.5z"/>
  <path d="M313 526.5 l0 -296.5 5 0 5 0 0 296.5 0 296.5 -5 0 -5 0 0 -296.5z"/>
  <path d="M327 526.5 l0 -296.5 5 0 5 0 0 296.5 0 296.5 -5 0 -5 0 0 -296.5z"/>
  <path d="M385 653.8 l0 -116.1 21.8 0.7 c57.4 1.8 82.9 6.4 109.4 19.7 23.9 11.9 44.7 33 54.8 55.4 1.7 3.8 4.3 11.3 5.7 16.5 2.3 8.4 2.6 11.3 2.6 26 0 14.6 -0.3 17.6 -2.6 26.2 -8.9 33.3 -34 62 -65.4 74.6 -22.5 9 -55.8 13.1 -106 13.2 l-20.3 0 0 -116.2z"/>
  <path d="M385 379.9 l0 -97.2 22.3 0.7 c41.2 1.3 60.4 4.8 79.9 14.6 20.9 10.5 35.8 29.2 41.4 52 2.8 11 2.5 35.5 -0.4 46.2 -8.2 29.9 -26.3 52 -53.6 65.3 -12.2 6 -24.3 9.5 -41.1 11.9 -10.7 1.5 -35.8 3.6 -44.2 3.6 l-4.3 0 0 -97.1z"/>
 </g>
</svg>