<?xml version="1.0" encoding="utf-8"?>
<!DOCTYPE svg PUBLIC "-//W3C//DTD SVG 20010904//EN" "http://www.w3.org/TR/2001/REC-SVG-20010904/DTD/svg10.dtd">
<svg version="1.0" xmlns="http://www.w3.org/2000/svg" width="964px" height="617px" viewBox="0 0 964 617" preserveAspectRatio="xMidYMid meet">
 <g fill="#000000">
  <path d="M7 310.6 l0 -302.6 65.8 0 c36.1 0 73.1 0.5 82.2 1 70.4 4.3 109.9 22.3 139.3 63.3 33.6 46.8 34.8 114.6 3 162.8 -11.7 17.9 -27.2 32 -50.7 46.4 l-2.9 1.7 14.4 5.7 c41.4 16.4 66.4 35 85.6 63.6 14.3 21.4 23.5 48.7 25.2 75.2 2.5 39.6 -6.4 73.7 -27.7 105.8 -9.4 14.3 -31.9 36.6 -46.6 46.4 -19.4 12.8 -41.5 22.2 -64.1 27.1 -25.4 5.4 -22.9 5.3 -126.7 5.7 l-96.8 0.4 0 -302.5z m15 -0.1 l0 -296.5 -5 0 -5 0 0 296.5 0 296.5 5 0 5 0 0 -296.5z m14 0 l0 -296.5 -5 0 -5 0 0 296.5 0 296.5 5 0 5 0 0 -296.5z m14 0 l0 -296.5 -5 0 -5 0 0 296.5 0 296.5 5 0 5 0 0 -296.5z m14 0 l0 -296.5 -5 0 -5 0 0 296.5 0 296.5 5 0 5 0 0 -296.5z m105.8 242.5 c53.5 -3.1 79.8 -12.1 103.7 -35.5 14.9 -14.7 25 -31.7 30.2 -51.3 2.3 -8.6 2.6 -11.6 2.6 -26.2 0 -14.7 -0.3 -17.6 -2.6 -26 -9.7 -35.8 -35.8 -63.1 -74.5 -78.1 -21.9 -8.5 -46.4 -11.9 -95.4 -13.5 l-21.8 -0.7 0 116.1 0 116.2 20.3 0 c11.1 0 28 -0.5 37.5 -1z m-34.8 -293 c31.2 -2.2 49.5 -6.2 66.6 -14.5 27.3 -13.3 45.4 -35.4 53.6 -65.3 2.9 -10.7 3.2 -35.2 0.4 -46.2 -5.6 -22.8 -20.5 -41.5 -41.4 -52 -19.5 -9.8 -38.7 -13.3 -79.9 -14.6 l-22.3 -0.7 0 97.2 0 97.1 4.3 0 c2.3 0 10.7 -0.5 18.7 -1z"/>
  <path d="M356 608.7 c0 -0.1 17.4 -45.4 38.8 -100.7 l38.7 -100.5 19.5 -0.3 19.6 -0.2 38.1 99.2 c21 54.6 38.5 100.1 38.9 101.1 0.6 1.6 -0.8 1.7 -19.3 1.7 l-20 0 -7.9 -20.7 -7.9 -20.8 -26.3 -0.3 c-14.4 -0.1 -26.2 -0.5 -26.2 -0.9 0 -0.4 3 -8.7 6.8 -18.5 l6.7 -17.8 12.3 0 c6.7 0 12.2 -0.2 12.2 -0.4 0 -0.3 -5.7 -15 -12.6 -32.8 -6.9 -17.8 -12.9 -33.1 -13.3 -34.1 -0.5 -1.4 -2.3 2.2 -6.5 13 -16.9 43.1 -22 56.2 -27.5 70.8 -3.3 8.8 -8.6 22.8 -11.9 31 -3.3 8.3 -7.4 18.7 -9.2 23.3 l-3.1 8.2 -20 0 c-10.9 0 -19.9 -0.1 -19.9 -0.3z"/>
  <path d="M580 508 l0 -101 15.8 0 15.7 0.1 65.3 100.7 65.2 100.7 -17.7 0.3 c-9.8 0.1 -18.2 0.1 -18.8 -0.2 -0.6 -0.2 -20.2 -29.7 -43.6 -65.5 l-42.4 -65.1 -0.3 65.5 -0.2 65.5 -19.5 0 -19.5 0 0 -101z"/>
  <path d="M787 542.6 l0 -66.6 19 0 19 0 0 47.6 0 47.6 21.3 -0.5 c14.5 -0.3 22.8 -0.9 26.3 -2 15.6 -4.5 25.6 -14.9 32.1 -33.3 2.6 -7.4 2.8 -8.9 2.8 -24.9 0 -15.1 -0.3 -17.9 -2.3 -24.5 -6.6 -20.9 -19.1 -33.3 -38.8 -38.4 -10.3 -2.7 -23.6 -3.6 -52.1 -3.6 l-27.3 0 0 -18.5 0 -18.5 27.8 0 c61.3 0 82.8 5.4 103 25.8 19 19.3 29.1 46.2 29.2 77.7 0 38.3 -15.7 69.7 -43.1 86.3 -16.3 9.9 -25.5 11.3 -77.1 11.9 l-39.8 0.5 0 -66.6z"/>
  <path d="M736.4 554.8 c-2.6 -4 -11.1 -17.2 -19 -29.4 l-14.4 -22.1 0 -48.1 0 -48.2 19.5 0 19.5 0 0 77.5 c0 42.6 -0.2 77.5 -0.5 77.5 -0.2 0 -2.5 -3.3 -5.1 -7.2z"/>
  <path d="M586.5 334 c-0.3 -0.5 -3 -1 -6 -1 -3 0 -5.7 -0.4 -6 -1 -0.3 -0.5 -1.9 -1 -3.5 -1 -1.6 0 -3.2 -0.4 -3.5 -1 -0.3 -0.5 -1.4 -1 -2.4 -1 -1.7 0 -13.3 -5.5 -21 -10 -11.5 -6.6 -29.6 -27.1 -35 -39.5 -6.6 -15.3 -8.4 -21.8 -10.1 -36.9 -1.5 -12.5 -1 -18.6 3.7 -43.9 0.3 -1.6 1.5 -3.2 2.7 -3.8 3.1 -1.3 49.8 -14 50.2 -13.6 0.2 0.1 -1 2.3 -2.7 4.7 -12 17.7 -17.1 39.4 -13.6 57.5 2.7 13.9 5.7 20.5 14.2 30.8 6.2 7.7 21.8 18.7 26.5 18.7 1 0 2.2 0.5 2.5 1 0.3 0.6 2.1 1 4 1 1.9 0 3.7 0.5 4 1 0.4 0.6 5.8 1 13 1 7.2 0 12.6 -0.4 13 -1 0.3 -0.5 2.4 -1 4.5 -1 2.1 0 4.2 -0.4 4.5 -1 0.3 -0.5 1.4 -1 2.5 -1 2.4 0 12 -5.1 18.1 -9.6 8.2 -6 21.9 -22.3 21.9 -26 0 -0.2 -14.7 -0.4 -32.6 -0.4 l-32.7 0 0.7 -6.2 c1.6 -15.3 3.5 -28.1 4.3 -28.9 0.5 -0.5 23.6 -0.8 53.4 -0.7 l52.4 0.3 -0.2 8.3 c-0.6 21.9 -10.5 48.9 -23.8 65.2 -8.1 10 -18.5 19.2 -27 24.2 -6.9 4.1 -18.9 9.8 -20.6 9.8 -1 0 -2 0.4 -2.3 0.9 -0.6 0.9 -5.1 1.9 -13.1 2.7 -2.7 0.3 -5.4 1 -5.9 1.5 -1.4 1.3 -33.3 1.2 -34.1 -0.1z"/>
  <path d="M377.4 331.3 c0.3 -1.6 7.8 -56.3 16.6 -121.8 8.8 -65.5 16.3 -119.7 16.6 -120.5 0.6 -1.9 37.4 -29.4 37.4 -27.9 0 2.1 -34 254.6 -34.9 259.4 -0.5 2.8 -1.3 6.9 -1.6 9.3 l-0.7 4.2 -17 0 -17 0 0.6 -2.7z"/>
  <path d="M669.2 179.7 c-4.9 -10 -12.8 -20.1 -20.8 -26.6 -6.1 -4.9 -23.8 -14.1 -27.3 -14.1 -1.1 0 -2.3 -0.4 -2.6 -1 -0.3 -0.5 -2.8 -1 -5.5 -1 -2.7 0 -5.2 -0.4 -5.5 -1 -0.4 -0.6 -6.7 -1 -15.5 -1 -8.8 0 -15.1 0.4 -15.5 1 -0.3 0.6 -3.3 1 -6.5 1 -3.2 0 -6.2 0.5 -6.5 1 -0.3 0.6 -2.3 1 -4.3 1 -2 0 -4.5 0.7 -5.5 1.5 -1.1 0.7 -2.5 1.1 -3.3 0.8 -0.8 -0.3 -2.5 0.2 -3.9 1.1 -1.3 0.9 -3.5 1.6 -4.9 1.6 -1.4 0 -2.7 0.4 -3 0.8 -0.3 0.4 -2.8 1.4 -5.6 2.2 -2.8 0.8 -5.3 1.8 -5.6 2.2 -0.3 0.4 -1.4 0.8 -2.5 0.8 -1 0 -2.8 0.5 -3.9 1 -1.1 0.5 -2.9 1.4 -3.9 1.9 -1 0.6 -2.1 0.8 -2.4 0.5 -0.2 -0.2 0.2 -3.5 0.9 -7.2 0.7 -3.7 2.9 -15.7 4.9 -26.7 3.3 -18.4 5.9 -32.3 8.6 -46.5 2 -10.3 2.7 -14.5 3.9 -22 0.6 -4.1 1.5 -9.1 2 -11 0.5 -1.9 1.4 -6.9 2.1 -11 0.7 -4.1 1.6 -8.5 2 -9.8 l0.9 -2.2 77.7 0.2 77.8 0.3 0.3 17.7 0.2 17.8 -64.6 0.2 -64.7 0.3 -0.4 4 c-0.2 2.2 -0.7 6 -1.3 8.5 -1 4.6 -5.4 28.5 -6.5 35.3 -0.5 2.9 -0.2 3.9 1.1 4.4 0.9 0.3 2.5 0.1 3.5 -0.5 1 -0.7 3.1 -1.2 4.6 -1.2 1.6 -0.1 3.9 -0.7 5.3 -1.5 1.4 -0.8 4.6 -1.4 7.2 -1.5 2.6 0 5 -0.4 5.3 -1 0.8 -1.3 30.2 -1.3 31 0 0.3 0.6 2.8 1 5.4 1 2.6 0 5.6 0.7 6.7 1.5 1 0.8 3.3 1.5 5.1 1.5 1.7 0 3.5 0.5 3.8 1 0.3 0.6 1.7 1 3 1 1.3 0 2.7 0.5 3 1 0.3 0.6 1.5 1 2.6 1 1 0 1.9 0.5 1.9 1 0 0.6 0.6 1 1.4 1 1.8 0 9.6 4 12 6.3 1.1 0.9 2.4 1.7 2.9 1.7 1.5 0 10 7.1 17.3 14.6 8.4 8.6 16.6 20.7 21.7 32 3.7 8.4 7.8 21.9 6.9 22.9 -0.3 0.3 -8.7 0.5 -18.8 0.5 l-18.2 0 -4 -8.3z"/>
  <path d="M363 84.7 c0 -3.1 5.2 -38.4 6 -40.3 0.4 -1.2 7.2 -6.7 15.1 -12.2 l14.2 -10.2 26.4 0 c14.5 0 26.3 0.2 26.3 0.4 0 0.2 -3.7 3.1 -8.2 6.3 -4.6 3.3 -24.4 17.5 -44 31.6 -19.7 14.1 -35.8 25.1 -35.8 24.4z"/>
 </g>
</svg>